<mxfile host="app.diagrams.net" modified="2024-06-16T07:31:00.648Z" agent="Mozilla/5.0 (Windows NT 10.0; Win64; x64) AppleWebKit/537.36 (KHTML, like Gecko) Chrome/126.0.0.0 Safari/537.36" etag="1T5cjHLbo3iQ-gdfLchV" version="24.5.4" type="github">
  <diagram id="6a731a19-8d31-9384-78a2-239565b7b9f0" name="Page-1">
    <mxGraphModel dx="2269" dy="1311" grid="1" gridSize="10" guides="1" tooltips="1" connect="1" arrows="1" fold="1" page="1" pageScale="1" pageWidth="1169" pageHeight="827" background="none" math="0" shadow="0">
      <root>
        <mxCell id="0" />
        <mxCell id="1" parent="0" />
        <mxCell id="45" value="" style="edgeStyle=elbowEdgeStyle;elbow=horizontal;exitX=1;exitY=0.5;exitPerimeter=0;entryX=0.905;entryY=0.5;entryPerimeter=0;fontStyle=1;strokeColor=#003366;strokeWidth=1;html=1;" parent="1" target="34" edge="1">
          <mxGeometry width="100" height="100" as="geometry">
            <mxPoint x="380.5" y="1119.25" as="sourcePoint" />
            <mxPoint x="100" as="targetPoint" />
            <Array as="points">
              <mxPoint x="950" y="1320" />
            </Array>
          </mxGeometry>
        </mxCell>
        <mxCell id="pjDGFru4gsE5hSaA8gFt-56" value="&lt;font style=&quot;font-size: 14px;&quot;&gt;nama_checkpoint&lt;/font&gt;" style="ellipse;whiteSpace=wrap;html=1;" vertex="1" parent="1">
          <mxGeometry x="340" y="720" width="120" height="60" as="geometry" />
        </mxCell>
        <mxCell id="pjDGFru4gsE5hSaA8gFt-59" value="&lt;font style=&quot;font-size: 18px;&quot;&gt;Password&lt;/font&gt;" style="ellipse;whiteSpace=wrap;html=1;" vertex="1" parent="1">
          <mxGeometry x="810" y="90" width="90" height="40" as="geometry" />
        </mxCell>
        <mxCell id="pjDGFru4gsE5hSaA8gFt-61" value="&lt;font style=&quot;font-size: 18px;&quot;&gt;Username&lt;/font&gt;" style="ellipse;whiteSpace=wrap;html=1;" vertex="1" parent="1">
          <mxGeometry x="580" y="70" width="100" height="50" as="geometry" />
        </mxCell>
        <mxCell id="pjDGFru4gsE5hSaA8gFt-62" value="&lt;font size=&quot;3&quot;&gt;Password&lt;/font&gt;" style="ellipse;whiteSpace=wrap;html=1;" vertex="1" parent="1">
          <mxGeometry x="310" y="110" width="120" height="50" as="geometry" />
        </mxCell>
        <mxCell id="pjDGFru4gsE5hSaA8gFt-63" value="&lt;font style=&quot;font-size: 18px;&quot;&gt;Username&lt;/font&gt;" style="ellipse;whiteSpace=wrap;html=1;" vertex="1" parent="1">
          <mxGeometry x="230" y="70" width="110" height="50" as="geometry" />
        </mxCell>
        <mxCell id="pjDGFru4gsE5hSaA8gFt-65" value="" style="endArrow=none;html=1;rounded=0;entryX=0.5;entryY=1;entryDx=0;entryDy=0;exitX=0.5;exitY=0;exitDx=0;exitDy=0;" edge="1" parent="1" source="pjDGFru4gsE5hSaA8gFt-85" target="pjDGFru4gsE5hSaA8gFt-62">
          <mxGeometry width="50" height="50" relative="1" as="geometry">
            <mxPoint x="290.00000000000045" y="230" as="sourcePoint" />
            <mxPoint x="770" y="450" as="targetPoint" />
          </mxGeometry>
        </mxCell>
        <mxCell id="pjDGFru4gsE5hSaA8gFt-66" value="" style="endArrow=none;html=1;rounded=0;exitX=0.5;exitY=1;exitDx=0;exitDy=0;entryX=0.5;entryY=0;entryDx=0;entryDy=0;" edge="1" parent="1" source="pjDGFru4gsE5hSaA8gFt-96" target="pjDGFru4gsE5hSaA8gFt-88">
          <mxGeometry width="50" height="50" relative="1" as="geometry">
            <mxPoint x="1525" y="325" as="sourcePoint" />
            <mxPoint x="1575" y="275" as="targetPoint" />
          </mxGeometry>
        </mxCell>
        <mxCell id="pjDGFru4gsE5hSaA8gFt-67" value="" style="endArrow=none;html=1;rounded=0;exitX=0.5;exitY=0;exitDx=0;exitDy=0;entryX=0.5;entryY=1;entryDx=0;entryDy=0;" edge="1" parent="1" source="pjDGFru4gsE5hSaA8gFt-95" target="pjDGFru4gsE5hSaA8gFt-86">
          <mxGeometry width="50" height="50" relative="1" as="geometry">
            <mxPoint x="440" y="495" as="sourcePoint" />
            <mxPoint x="490" y="445" as="targetPoint" />
          </mxGeometry>
        </mxCell>
        <mxCell id="pjDGFru4gsE5hSaA8gFt-68" value="" style="endArrow=none;html=1;rounded=0;exitX=0.5;exitY=0;exitDx=0;exitDy=0;entryX=0.5;entryY=1;entryDx=0;entryDy=0;" edge="1" parent="1" source="pjDGFru4gsE5hSaA8gFt-56" target="pjDGFru4gsE5hSaA8gFt-86">
          <mxGeometry width="50" height="50" relative="1" as="geometry">
            <mxPoint x="440" y="495" as="sourcePoint" />
            <mxPoint x="490" y="445" as="targetPoint" />
          </mxGeometry>
        </mxCell>
        <mxCell id="pjDGFru4gsE5hSaA8gFt-69" value="" style="endArrow=none;html=1;rounded=0;entryX=0.5;entryY=0;entryDx=0;entryDy=0;exitX=0.5;exitY=1;exitDx=0;exitDy=0;" edge="1" parent="1" source="pjDGFru4gsE5hSaA8gFt-86" target="pjDGFru4gsE5hSaA8gFt-98">
          <mxGeometry width="50" height="50" relative="1" as="geometry">
            <mxPoint x="370" y="225" as="sourcePoint" />
            <mxPoint x="490" y="335" as="targetPoint" />
          </mxGeometry>
        </mxCell>
        <mxCell id="pjDGFru4gsE5hSaA8gFt-70" value="" style="endArrow=none;html=1;rounded=0;exitX=0.5;exitY=1;exitDx=0;exitDy=0;entryX=0.5;entryY=0;entryDx=0;entryDy=0;" edge="1" parent="1" source="pjDGFru4gsE5hSaA8gFt-79" target="pjDGFru4gsE5hSaA8gFt-85">
          <mxGeometry width="50" height="50" relative="1" as="geometry">
            <mxPoint x="1110" y="570" as="sourcePoint" />
            <mxPoint x="290.00000000000045" y="230" as="targetPoint" />
          </mxGeometry>
        </mxCell>
        <mxCell id="pjDGFru4gsE5hSaA8gFt-72" value="" style="endArrow=none;html=1;rounded=0;exitX=0;exitY=1;exitDx=0;exitDy=0;entryX=0.5;entryY=0;entryDx=0;entryDy=0;" edge="1" parent="1" source="pjDGFru4gsE5hSaA8gFt-59" target="pjDGFru4gsE5hSaA8gFt-88">
          <mxGeometry width="50" height="50" relative="1" as="geometry">
            <mxPoint x="755" y="555" as="sourcePoint" />
            <mxPoint x="695.0000000000005" y="275" as="targetPoint" />
          </mxGeometry>
        </mxCell>
        <mxCell id="pjDGFru4gsE5hSaA8gFt-74" value="" style="endArrow=none;html=1;rounded=0;exitX=0.5;exitY=1;exitDx=0;exitDy=0;entryX=0.5;entryY=0;entryDx=0;entryDy=0;" edge="1" parent="1" source="pjDGFru4gsE5hSaA8gFt-61" target="pjDGFru4gsE5hSaA8gFt-88">
          <mxGeometry width="50" height="50" relative="1" as="geometry">
            <mxPoint x="750" y="225" as="sourcePoint" />
            <mxPoint x="695.0000000000005" y="275" as="targetPoint" />
          </mxGeometry>
        </mxCell>
        <mxCell id="pjDGFru4gsE5hSaA8gFt-75" value="" style="endArrow=none;html=1;rounded=0;entryX=0.5;entryY=1;entryDx=0;entryDy=0;exitX=0.5;exitY=0;exitDx=0;exitDy=0;" edge="1" parent="1" source="pjDGFru4gsE5hSaA8gFt-85" target="pjDGFru4gsE5hSaA8gFt-63">
          <mxGeometry width="50" height="50" relative="1" as="geometry">
            <mxPoint x="290.00000000000045" y="230" as="sourcePoint" />
            <mxPoint x="560" y="420" as="targetPoint" />
          </mxGeometry>
        </mxCell>
        <mxCell id="pjDGFru4gsE5hSaA8gFt-79" value="&lt;font size=&quot;3&quot;&gt;Id_admin&lt;/font&gt;" style="ellipse;whiteSpace=wrap;html=1;rotation=0;" vertex="1" parent="1">
          <mxGeometry x="120" y="102.5" width="110" height="65" as="geometry" />
        </mxCell>
        <mxCell id="pjDGFru4gsE5hSaA8gFt-85" value="&lt;font style=&quot;font-size: 24px;&quot;&gt;Admin&lt;/font&gt;" style="rounded=0;whiteSpace=wrap;html=1;" vertex="1" parent="1">
          <mxGeometry x="230" y="250" width="120" height="60" as="geometry" />
        </mxCell>
        <mxCell id="pjDGFru4gsE5hSaA8gFt-86" value="&lt;font style=&quot;font-size: 24px;&quot;&gt;Checkpoint&lt;/font&gt;" style="rounded=0;whiteSpace=wrap;html=1;" vertex="1" parent="1">
          <mxGeometry x="420" y="560" width="140" height="75" as="geometry" />
        </mxCell>
        <mxCell id="pjDGFru4gsE5hSaA8gFt-88" value="&lt;font style=&quot;font-size: 24px;&quot;&gt;Operator&lt;/font&gt;" style="rounded=0;whiteSpace=wrap;html=1;" vertex="1" parent="1">
          <mxGeometry x="640" y="150" width="120" height="60" as="geometry" />
        </mxCell>
        <mxCell id="pjDGFru4gsE5hSaA8gFt-89" value="&lt;font style=&quot;font-size: 24px;&quot;&gt;Robot&lt;/font&gt;" style="rounded=0;whiteSpace=wrap;html=1;" vertex="1" parent="1">
          <mxGeometry x="640" y="374" width="120" height="60" as="geometry" />
        </mxCell>
        <mxCell id="pjDGFru4gsE5hSaA8gFt-92" value="" style="endArrow=classic;html=1;rounded=0;exitX=1;exitY=0.5;exitDx=0;exitDy=0;entryX=0;entryY=0.5;entryDx=0;entryDy=0;exitPerimeter=0;" edge="1" parent="1" source="pjDGFru4gsE5hSaA8gFt-85" target="pjDGFru4gsE5hSaA8gFt-88">
          <mxGeometry width="50" height="50" relative="1" as="geometry">
            <mxPoint x="90" y="520" as="sourcePoint" />
            <mxPoint x="140" y="470" as="targetPoint" />
          </mxGeometry>
        </mxCell>
        <mxCell id="pjDGFru4gsE5hSaA8gFt-93" value="" style="endArrow=classic;html=1;rounded=0;exitX=1;exitY=0.5;exitDx=0;exitDy=0;entryX=0.5;entryY=0;entryDx=0;entryDy=0;" edge="1" parent="1" source="pjDGFru4gsE5hSaA8gFt-85" target="pjDGFru4gsE5hSaA8gFt-86">
          <mxGeometry width="50" height="50" relative="1" as="geometry">
            <mxPoint x="90" y="520" as="sourcePoint" />
            <mxPoint x="140" y="470" as="targetPoint" />
          </mxGeometry>
        </mxCell>
        <mxCell id="pjDGFru4gsE5hSaA8gFt-94" value="" style="endArrow=classic;html=1;rounded=0;exitX=1;exitY=0.5;exitDx=0;exitDy=0;entryX=0;entryY=0.5;entryDx=0;entryDy=0;" edge="1" parent="1" source="pjDGFru4gsE5hSaA8gFt-85" target="pjDGFru4gsE5hSaA8gFt-89">
          <mxGeometry width="50" height="50" relative="1" as="geometry">
            <mxPoint x="90" y="520" as="sourcePoint" />
            <mxPoint x="140" y="470" as="targetPoint" />
          </mxGeometry>
        </mxCell>
        <mxCell id="pjDGFru4gsE5hSaA8gFt-95" value="&lt;font style=&quot;font-size: 18px;&quot;&gt;Lokasi&lt;/font&gt;" style="ellipse;whiteSpace=wrap;html=1;" vertex="1" parent="1">
          <mxGeometry x="490" y="710" width="90" height="60" as="geometry" />
        </mxCell>
        <mxCell id="pjDGFru4gsE5hSaA8gFt-96" value="&lt;font style=&quot;font-size: 18px;&quot;&gt;Id_operator&lt;/font&gt;" style="ellipse;whiteSpace=wrap;html=1;" vertex="1" parent="1">
          <mxGeometry x="690" y="50" width="110" height="60" as="geometry" />
        </mxCell>
        <mxCell id="pjDGFru4gsE5hSaA8gFt-97" value="&lt;font style=&quot;font-size: 18px;&quot;&gt;nama_robot&lt;/font&gt;" style="ellipse;whiteSpace=wrap;html=1;" vertex="1" parent="1">
          <mxGeometry x="930" y="444" width="110" height="50" as="geometry" />
        </mxCell>
        <mxCell id="pjDGFru4gsE5hSaA8gFt-98" value="&lt;font style=&quot;font-size: 18px;&quot;&gt;Id_Checkpoint&lt;/font&gt;" style="ellipse;whiteSpace=wrap;html=1;" vertex="1" parent="1">
          <mxGeometry x="600" y="700" width="120" height="65" as="geometry" />
        </mxCell>
        <mxCell id="pjDGFru4gsE5hSaA8gFt-101" value="&lt;font style=&quot;font-size: 18px;&quot;&gt;Type_robot&lt;/font&gt;" style="ellipse;whiteSpace=wrap;html=1;" vertex="1" parent="1">
          <mxGeometry x="950" y="384" width="100" height="50" as="geometry" />
        </mxCell>
        <mxCell id="pjDGFru4gsE5hSaA8gFt-102" value="&lt;span style=&quot;font-size: 18px;&quot;&gt;Id_checkpoint&lt;/span&gt;" style="ellipse;whiteSpace=wrap;html=1;" vertex="1" parent="1">
          <mxGeometry x="910" y="270" width="130" height="40" as="geometry" />
        </mxCell>
        <mxCell id="pjDGFru4gsE5hSaA8gFt-103" value="&lt;font style=&quot;font-size: 18px;&quot;&gt;Id_robot&lt;/font&gt;" style="ellipse;whiteSpace=wrap;html=1;" vertex="1" parent="1">
          <mxGeometry x="900" y="510" width="90" height="60" as="geometry" />
        </mxCell>
        <mxCell id="pjDGFru4gsE5hSaA8gFt-104" value="&lt;font style=&quot;font-size: 18px;&quot;&gt;Status&lt;/font&gt;" style="ellipse;whiteSpace=wrap;html=1;" vertex="1" parent="1">
          <mxGeometry x="960" y="330" width="70" height="45" as="geometry" />
        </mxCell>
        <mxCell id="pjDGFru4gsE5hSaA8gFt-105" value="" style="endArrow=none;html=1;rounded=0;exitX=0;exitY=0.5;exitDx=0;exitDy=0;entryX=1;entryY=0.5;entryDx=0;entryDy=0;" edge="1" parent="1" source="pjDGFru4gsE5hSaA8gFt-111" target="pjDGFru4gsE5hSaA8gFt-89">
          <mxGeometry width="50" height="50" relative="1" as="geometry">
            <mxPoint x="280" y="355" as="sourcePoint" />
            <mxPoint x="330" y="305" as="targetPoint" />
          </mxGeometry>
        </mxCell>
        <mxCell id="pjDGFru4gsE5hSaA8gFt-106" value="" style="endArrow=none;html=1;rounded=0;exitX=0;exitY=0.5;exitDx=0;exitDy=0;entryX=1;entryY=0.5;entryDx=0;entryDy=0;" edge="1" parent="1" source="pjDGFru4gsE5hSaA8gFt-102" target="pjDGFru4gsE5hSaA8gFt-89">
          <mxGeometry width="50" height="50" relative="1" as="geometry">
            <mxPoint x="280" y="355" as="sourcePoint" />
            <mxPoint x="790" y="380" as="targetPoint" />
          </mxGeometry>
        </mxCell>
        <mxCell id="pjDGFru4gsE5hSaA8gFt-107" value="" style="endArrow=none;html=1;rounded=0;entryX=1;entryY=0.5;entryDx=0;entryDy=0;exitX=0.5;exitY=0;exitDx=0;exitDy=0;" edge="1" parent="1" source="pjDGFru4gsE5hSaA8gFt-104" target="pjDGFru4gsE5hSaA8gFt-89">
          <mxGeometry width="50" height="50" relative="1" as="geometry">
            <mxPoint x="990" y="515" as="sourcePoint" />
            <mxPoint x="300" y="535" as="targetPoint" />
          </mxGeometry>
        </mxCell>
        <mxCell id="pjDGFru4gsE5hSaA8gFt-108" value="" style="endArrow=none;html=1;rounded=0;exitX=0.5;exitY=0;exitDx=0;exitDy=0;entryX=1;entryY=0.5;entryDx=0;entryDy=0;" edge="1" parent="1" source="pjDGFru4gsE5hSaA8gFt-101" target="pjDGFru4gsE5hSaA8gFt-89">
          <mxGeometry width="50" height="50" relative="1" as="geometry">
            <mxPoint x="280" y="355" as="sourcePoint" />
            <mxPoint x="700" y="395" as="targetPoint" />
          </mxGeometry>
        </mxCell>
        <mxCell id="pjDGFru4gsE5hSaA8gFt-109" value="" style="endArrow=none;html=1;rounded=0;exitX=0.5;exitY=0;exitDx=0;exitDy=0;entryX=1;entryY=0.5;entryDx=0;entryDy=0;" edge="1" parent="1" source="pjDGFru4gsE5hSaA8gFt-97" target="pjDGFru4gsE5hSaA8gFt-89">
          <mxGeometry width="50" height="50" relative="1" as="geometry">
            <mxPoint x="280" y="355" as="sourcePoint" />
            <mxPoint x="780" y="375" as="targetPoint" />
          </mxGeometry>
        </mxCell>
        <mxCell id="pjDGFru4gsE5hSaA8gFt-110" value="" style="endArrow=none;html=1;rounded=0;entryX=0.5;entryY=0;entryDx=0;entryDy=0;exitX=1;exitY=0.5;exitDx=0;exitDy=0;" edge="1" parent="1" source="pjDGFru4gsE5hSaA8gFt-89" target="pjDGFru4gsE5hSaA8gFt-103">
          <mxGeometry width="50" height="50" relative="1" as="geometry">
            <mxPoint x="280" y="355" as="sourcePoint" />
            <mxPoint x="330" y="305" as="targetPoint" />
          </mxGeometry>
        </mxCell>
        <mxCell id="pjDGFru4gsE5hSaA8gFt-111" value="&lt;font style=&quot;font-size: 18px;&quot;&gt;Status_batrai&lt;/font&gt;" style="ellipse;whiteSpace=wrap;html=1;" vertex="1" parent="1">
          <mxGeometry x="830" y="210" width="130" height="50" as="geometry" />
        </mxCell>
        <mxCell id="pjDGFru4gsE5hSaA8gFt-113" value="" style="endArrow=classic;html=1;rounded=0;exitX=0.5;exitY=1;exitDx=0;exitDy=0;entryX=0.5;entryY=0;entryDx=0;entryDy=0;" edge="1" parent="1" source="pjDGFru4gsE5hSaA8gFt-88" target="pjDGFru4gsE5hSaA8gFt-89">
          <mxGeometry width="50" height="50" relative="1" as="geometry">
            <mxPoint x="220" y="400" as="sourcePoint" />
            <mxPoint x="270" y="350" as="targetPoint" />
          </mxGeometry>
        </mxCell>
        <mxCell id="pjDGFru4gsE5hSaA8gFt-114" value="Melihiat" style="text;html=1;align=center;verticalAlign=middle;whiteSpace=wrap;rounded=0;" vertex="1" parent="1">
          <mxGeometry x="700" y="260" width="60" height="30" as="geometry" />
        </mxCell>
        <mxCell id="pjDGFru4gsE5hSaA8gFt-117" value="Mengelola" style="text;html=1;align=center;verticalAlign=middle;whiteSpace=wrap;rounded=0;" vertex="1" parent="1">
          <mxGeometry x="480" y="310" width="60" height="30" as="geometry" />
        </mxCell>
        <mxCell id="pjDGFru4gsE5hSaA8gFt-118" value="Mengelola" style="text;html=1;align=center;verticalAlign=middle;whiteSpace=wrap;rounded=0;" vertex="1" parent="1">
          <mxGeometry x="450" y="200" width="60" height="30" as="geometry" />
        </mxCell>
        <mxCell id="pjDGFru4gsE5hSaA8gFt-119" value="Mengelola" style="text;html=1;align=center;verticalAlign=middle;whiteSpace=wrap;rounded=0;" vertex="1" parent="1">
          <mxGeometry x="430" y="414" width="60" height="30" as="geometry" />
        </mxCell>
        <mxCell id="pjDGFru4gsE5hSaA8gFt-124" value="" style="rounded=0;whiteSpace=wrap;html=1;fillColor=none;" vertex="1" parent="1">
          <mxGeometry x="60" y="24" width="1050" height="796" as="geometry" />
        </mxCell>
      </root>
    </mxGraphModel>
  </diagram>
</mxfile>
